<svg width="194" height="22" viewBox="0 0 194 22" fill="none" xmlns="http://www.w3.org/2000/svg">
<path d="M1.40143 21C1.18667 21 1.00119 20.9219 0.845 20.7657C0.68881 20.6095 0.610714 20.424 0.610714 20.2093V1.29071C0.610714 1.07595 0.68881 0.890476 0.845 0.734286C1.00119 0.578095 1.18667 0.499999 1.40143 0.499999H16.425C16.6398 0.499999 16.8252 0.578095 16.9814 0.734286C17.1376 0.890476 17.2157 1.07595 17.2157 1.29071V5.42C17.2157 5.63476 17.1376 5.82024 16.9814 5.97643C16.8252 6.13262 16.6398 6.21071 16.425 6.21071H7.63929V8.05571H15.7807C15.9955 8.05571 16.181 8.13381 16.3371 8.29C16.4933 8.44619 16.5714 8.63167 16.5714 8.84643V12.6536C16.5714 12.8683 16.4933 13.0538 16.3371 13.21C16.181 13.3662 15.9955 13.4443 15.7807 13.4443H7.63929V15.2893H16.6593C16.874 15.2893 17.0595 15.3674 17.2157 15.5236C17.3719 15.6798 17.45 15.8652 17.45 16.08V20.2093C17.45 20.424 17.3719 20.6095 17.2157 20.7657C17.0595 20.9219 16.874 21 16.6593 21H1.40143ZM19.1776 21C19.0019 21 18.8457 20.9414 18.7091 20.8243C18.5919 20.6876 18.5333 20.5314 18.5333 20.3557C18.5333 20.3167 18.5333 20.2776 18.5333 20.2386C18.5529 20.18 18.5822 20.1117 18.6212 20.0336L24.7712 10.5157L19.2362 1.46643C19.1776 1.34929 19.1483 1.2419 19.1483 1.14429C19.1483 0.968571 19.2069 0.822143 19.3241 0.705C19.4607 0.568333 19.6169 0.499999 19.7926 0.499999H26.1476C26.5381 0.499999 26.8212 0.597618 26.9969 0.792856C27.1922 0.988095 27.3191 1.13452 27.3776 1.23214L29.4276 4.805L31.6533 1.23214C31.7119 1.13452 31.8388 0.988095 32.0341 0.792856C32.2293 0.597618 32.5124 0.499999 32.8833 0.499999H38.9455C39.1212 0.499999 39.2676 0.568333 39.3848 0.705C39.5214 0.822143 39.5898 0.968571 39.5898 1.14429C39.5898 1.26143 39.5605 1.36881 39.5019 1.46643L33.8498 10.4279L40.0876 20.0336C40.1267 20.1117 40.1462 20.18 40.1462 20.2386C40.1657 20.2776 40.1755 20.3167 40.1755 20.3557C40.1755 20.5314 40.1072 20.6876 39.9705 20.8243C39.8533 20.9414 39.7069 21 39.5312 21H32.9419C32.571 21 32.2879 20.9121 32.0926 20.7364C31.8974 20.5412 31.7802 20.4045 31.7412 20.3264L29.1933 16.4021L26.7626 20.3264C26.7236 20.4045 26.6064 20.5412 26.4112 20.7364C26.2355 20.9121 25.9524 21 25.5619 21H19.1776ZM42.5845 21C42.3697 21 42.1842 20.9219 42.028 20.7657C41.8718 20.6095 41.7938 20.424 41.7938 20.2093V1.29071C41.7938 1.07595 41.8718 0.890476 42.028 0.734286C42.1842 0.578095 42.3697 0.499999 42.5845 0.499999H51.458C53.2347 0.499999 54.7771 0.763571 56.0852 1.29071C57.4128 1.79833 58.4378 2.58905 59.1602 3.66286C59.9021 4.71714 60.273 6.05452 60.273 7.675C60.273 9.29548 59.9021 10.6231 59.1602 11.6579C58.4378 12.6731 57.4128 13.4248 56.0852 13.9129C54.7771 14.3814 53.2347 14.6157 51.458 14.6157H49.408V20.2093C49.408 20.424 49.3299 20.6095 49.1738 20.7657C49.0176 20.9219 48.8321 21 48.6173 21H42.5845ZM49.2616 9.19786H51.3116C51.624 9.19786 51.9266 9.08071 52.2195 8.84643C52.5123 8.59262 52.6588 8.18262 52.6588 7.61643C52.6588 7.24548 52.5611 6.87452 52.3659 6.50357C52.1902 6.13262 51.8388 5.94714 51.3116 5.94714H49.2616V9.19786ZM63.2332 21C63.0184 21 62.8329 20.9219 62.6767 20.7657C62.5206 20.6095 62.4425 20.424 62.4425 20.2093V1.29071C62.4425 1.07595 62.5206 0.890476 62.6767 0.734286C62.8329 0.578095 63.0184 0.499999 63.2332 0.499999H78.2567C78.4715 0.499999 78.657 0.578095 78.8132 0.734286C78.9694 0.890476 79.0475 1.07595 79.0475 1.29071V5.42C79.0475 5.63476 78.9694 5.82024 78.8132 5.97643C78.657 6.13262 78.4715 6.21071 78.2567 6.21071H69.471V8.05571H77.6125C77.8272 8.05571 78.0127 8.13381 78.1689 8.29C78.3251 8.44619 78.4032 8.63167 78.4032 8.84643V12.6536C78.4032 12.8683 78.3251 13.0538 78.1689 13.21C78.0127 13.3662 77.8272 13.4443 77.6125 13.4443H69.471V15.2893H78.491C78.7058 15.2893 78.8913 15.3674 79.0475 15.5236C79.2037 15.6798 79.2817 15.8652 79.2817 16.08V20.2093C79.2817 20.424 79.2037 20.6095 79.0475 20.7657C78.8913 20.9219 78.7058 21 78.491 21H63.2332ZM82.7665 21C82.5518 21 82.3663 20.9219 82.2101 20.7657C82.0539 20.6095 81.9758 20.424 81.9758 20.2093V1.29071C81.9758 1.07595 82.0539 0.890476 82.2101 0.734286C82.3663 0.578095 82.5518 0.499999 82.7665 0.499999H91.4351C94.2465 0.499999 96.443 1.13452 98.0244 2.40357C99.6058 3.67262 100.397 5.41024 100.397 7.61643C100.397 8.92452 100.094 10.0667 99.4887 11.0429C98.903 11.9995 98.1513 12.7707 97.2337 13.3564L100.836 20.0336C100.894 20.1507 100.924 20.2581 100.924 20.3557C100.924 20.5314 100.855 20.6876 100.719 20.8243C100.602 20.9414 100.455 21 100.279 21H94.2758C93.8853 21 93.5925 20.9024 93.3972 20.7071C93.202 20.5119 93.0751 20.346 93.0165 20.2093L90.498 14.6157H89.2972V20.2093C89.2972 20.424 89.2191 20.6095 89.063 20.7657C88.9068 20.9219 88.7213 21 88.5065 21H82.7665ZM89.2972 9.05143H91.4351C91.8841 9.05143 92.216 8.905 92.4308 8.61214C92.6651 8.29976 92.7822 7.94833 92.7822 7.55786C92.7822 7.16738 92.6749 6.80619 92.4601 6.47429C92.2649 6.12286 91.9232 5.94714 91.4351 5.94714H89.2972V9.05143ZM103.901 21C103.687 21 103.501 20.9219 103.345 20.7657C103.189 20.6095 103.111 20.424 103.111 20.2093V1.29071C103.111 1.07595 103.189 0.890476 103.345 0.734286C103.501 0.578095 103.687 0.499999 103.901 0.499999H109.876C110.09 0.499999 110.276 0.578095 110.432 0.734286C110.588 0.890476 110.666 1.07595 110.666 1.29071V20.2093C110.666 20.424 110.588 20.6095 110.432 20.7657C110.276 20.9219 110.09 21 109.876 21H103.901ZM114.683 21C114.469 21 114.283 20.9219 114.127 20.7657C113.971 20.6095 113.893 20.424 113.893 20.2093V1.29071C113.893 1.07595 113.971 0.890476 114.127 0.734286C114.283 0.578095 114.469 0.499999 114.683 0.499999H129.707C129.922 0.499999 130.107 0.578095 130.263 0.734286C130.42 0.890476 130.498 1.07595 130.498 1.29071V5.42C130.498 5.63476 130.42 5.82024 130.263 5.97643C130.107 6.13262 129.922 6.21071 129.707 6.21071H120.921V8.05571H129.063C129.277 8.05571 129.463 8.13381 129.619 8.29C129.775 8.44619 129.853 8.63167 129.853 8.84643V12.6536C129.853 12.8683 129.775 13.0538 129.619 13.21C129.463 13.3662 129.277 13.4443 129.063 13.4443H120.921V15.2893H129.941C130.156 15.2893 130.341 15.3674 130.498 15.5236C130.654 15.6798 130.732 15.8652 130.732 16.08V20.2093C130.732 20.424 130.654 20.6095 130.498 20.7657C130.341 20.9219 130.156 21 129.941 21H114.683ZM134.217 21C134.002 21 133.816 20.9219 133.66 20.7657C133.504 20.6095 133.426 20.424 133.426 20.2093V1.29071C133.426 1.07595 133.504 0.890476 133.66 0.734286C133.816 0.578095 134.002 0.499999 134.217 0.499999H138.844C139.234 0.499999 139.517 0.587857 139.693 0.763571C139.869 0.939285 139.986 1.07595 140.045 1.17357L144.994 9.28571V1.29071C144.994 1.07595 145.072 0.890476 145.228 0.734286C145.384 0.578095 145.57 0.499999 145.785 0.499999H151.085C151.3 0.499999 151.486 0.578095 151.642 0.734286C151.798 0.890476 151.876 1.07595 151.876 1.29071V20.2093C151.876 20.424 151.798 20.6095 151.642 20.7657C151.486 20.9219 151.3 21 151.085 21H146.458C146.068 21 145.785 20.9121 145.609 20.7364C145.433 20.5412 145.316 20.4045 145.257 20.3264L140.308 12.8586V20.2093C140.308 20.424 140.23 20.6095 140.074 20.7657C139.918 20.9219 139.732 21 139.517 21H134.217ZM164.388 21.2929C162.514 21.2929 160.854 21.0195 159.409 20.4729C157.965 19.9262 156.813 19.0671 155.954 17.8957C155.114 16.7243 154.655 15.2112 154.577 13.3564C154.558 12.556 154.548 11.6969 154.548 10.7793C154.548 9.86167 154.558 8.9831 154.577 8.14357C154.655 6.32786 155.124 4.83429 155.983 3.66286C156.861 2.49143 158.023 1.62262 159.468 1.05643C160.932 0.490238 162.572 0.207143 164.388 0.207143C165.637 0.207143 166.838 0.353571 167.99 0.646428C169.161 0.919761 170.216 1.35905 171.153 1.96429C172.09 2.56952 172.832 3.35048 173.379 4.30714C173.945 5.24429 174.238 6.37667 174.257 7.70429C174.257 7.88 174.189 8.03619 174.052 8.17286C173.935 8.29 173.789 8.34857 173.613 8.34857H167.639C167.326 8.34857 167.092 8.29 166.936 8.17286C166.799 8.03619 166.672 7.81167 166.555 7.49929C166.34 6.87452 166.047 6.45476 165.676 6.24C165.305 6.02524 164.866 5.91786 164.359 5.91786C163.714 5.91786 163.197 6.09357 162.806 6.445C162.435 6.7769 162.23 7.3919 162.191 8.29C162.133 9.89095 162.133 11.531 162.191 13.21C162.23 14.1081 162.435 14.7329 162.806 15.0843C163.197 15.4162 163.714 15.5821 164.359 15.5821C164.866 15.5821 165.305 15.465 165.676 15.2307C166.067 14.9964 166.36 14.5864 166.555 14.0007C166.653 13.6688 166.78 13.4443 166.936 13.3271C167.092 13.21 167.326 13.1514 167.639 13.1514H173.613C173.789 13.1514 173.935 13.2198 174.052 13.3564C174.189 13.4736 174.257 13.62 174.257 13.7957C174.238 15.1233 173.945 16.2655 173.379 17.2221C172.832 18.1593 172.09 18.9305 171.153 19.5357C170.216 20.141 169.161 20.59 167.99 20.8829C166.838 21.1562 165.637 21.2929 164.388 21.2929ZM177.373 21C177.158 21 176.973 20.9219 176.817 20.7657C176.66 20.6095 176.582 20.424 176.582 20.2093V1.29071C176.582 1.07595 176.66 0.890476 176.817 0.734286C176.973 0.578095 177.158 0.499999 177.373 0.499999H192.397C192.611 0.499999 192.797 0.578095 192.953 0.734286C193.109 0.890476 193.187 1.07595 193.187 1.29071V5.42C193.187 5.63476 193.109 5.82024 192.953 5.97643C192.797 6.13262 192.611 6.21071 192.397 6.21071H183.611V8.05571H191.752C191.967 8.05571 192.153 8.13381 192.309 8.29C192.465 8.44619 192.543 8.63167 192.543 8.84643V12.6536C192.543 12.8683 192.465 13.0538 192.309 13.21C192.153 13.3662 191.967 13.4443 191.752 13.4443H183.611V15.2893H192.631C192.846 15.2893 193.031 15.3674 193.187 15.5236C193.344 15.6798 193.422 15.8652 193.422 16.08V20.2093C193.422 20.424 193.344 20.6095 193.187 20.7657C193.031 20.9219 192.846 21 192.631 21H177.373Z" fill="currentColor"/>
</svg>
