<svg width="164" height="60" viewBox="0 0 164 60" fill="none" xmlns="http://www.w3.org/2000/svg">
<path d="M5.925 24C5.74167 24 5.58333 23.9333 5.45 23.8C5.31667 23.6667 5.25 23.5083 5.25 23.325V11.875H1.1C0.916667 11.875 0.758333 11.8083 0.625 11.675C0.491667 11.5417 0.425 11.3833 0.425 11.2V7.175C0.425 6.99167 0.491667 6.83333 0.625 6.7C0.758333 6.56667 0.916667 6.5 1.1 6.5H15.75C15.9333 6.5 16.0917 6.56667 16.225 6.7C16.3583 6.83333 16.425 6.99167 16.425 7.175V11.2C16.425 11.3833 16.3583 11.5417 16.225 11.675C16.0917 11.8083 15.9333 11.875 15.75 11.875H11.6V23.325C11.6 23.5083 11.5333 23.6667 11.4 23.8C11.2667 23.9333 11.1083 24 10.925 24H5.925ZM15.6623 24C15.5123 24 15.379 23.95 15.2623 23.85C15.1623 23.7333 15.1123 23.6 15.1123 23.45C15.1123 23.3833 15.1206 23.325 15.1373 23.275L20.7123 7.325C20.7623 7.14167 20.879 6.95833 21.0623 6.775C21.2456 6.59167 21.504 6.5 21.8373 6.5H27.2623C27.5956 6.5 27.854 6.59167 28.0373 6.775C28.2206 6.95833 28.3373 7.14167 28.3873 7.325L33.9623 23.275C33.979 23.325 33.9873 23.3833 33.9873 23.45C33.9873 23.6 33.929 23.7333 33.8123 23.85C33.7123 23.95 33.5873 24 33.4373 24H28.8123C28.4956 24 28.2623 23.9333 28.1123 23.8C27.979 23.65 27.8873 23.5083 27.8373 23.375L27.2373 21.725H21.8623L21.2623 23.375C21.2123 23.5083 21.1206 23.65 20.9873 23.8C20.854 23.9333 20.6206 24 20.2873 24H15.6623ZM23.1373 16.85H25.9623L24.5373 12.2L23.1373 16.85ZM36.0344 24C35.851 24 35.6927 23.9333 35.5594 23.8C35.426 23.6667 35.3594 23.5083 35.3594 23.325V7.175C35.3594 6.99167 35.426 6.83333 35.5594 6.7C35.6927 6.56667 35.851 6.5 36.0344 6.5H41.0344C41.2177 6.5 41.376 6.56667 41.5094 6.7C41.6427 6.83333 41.7094 6.99167 41.7094 7.175V18.875H48.6344C48.8177 18.875 48.976 18.9417 49.1094 19.075C49.2427 19.2083 49.3094 19.3667 49.3094 19.55V23.325C49.3094 23.5083 49.2427 23.6667 49.1094 23.8C48.976 23.9333 48.8177 24 48.6344 24H36.0344ZM51.6838 24C51.5005 24 51.3421 23.9333 51.2088 23.8C51.0755 23.6667 51.0088 23.5083 51.0088 23.325V7.175C51.0088 6.99167 51.0755 6.83333 51.2088 6.7C51.3421 6.56667 51.5005 6.5 51.6838 6.5H56.4588C56.6421 6.5 56.8005 6.56667 56.9338 6.7C57.0671 6.83333 57.1338 6.99167 57.1338 7.175V12.125L59.9588 7.05C60.0421 6.91667 60.1588 6.79167 60.3088 6.675C60.4755 6.55833 60.6921 6.5 60.9588 6.5H66.4838C66.6338 6.5 66.7588 6.55833 66.8588 6.675C66.9755 6.775 67.0338 6.9 67.0338 7.05C67.0338 7.15 67.0088 7.24167 66.9588 7.325L62.4588 14.875L67.3838 23.175C67.4338 23.2417 67.4588 23.3333 67.4588 23.45C67.4588 23.6 67.4005 23.7333 67.2838 23.85C67.1838 23.95 67.0588 24 66.9088 24H61.2088C60.8755 24 60.6255 23.925 60.4588 23.775C60.3088 23.6083 60.2171 23.4917 60.1838 23.425L57.1338 17.975V23.325C57.1338 23.5083 57.0671 23.6667 56.9338 23.8C56.8005 23.9333 56.6421 24 56.4588 24H51.6838ZM72.0832 24C71.9332 24 71.7999 23.95 71.6832 23.85C71.5832 23.7333 71.5332 23.6 71.5332 23.45C71.5332 23.3833 71.5415 23.325 71.5582 23.275L77.1332 7.325C77.1832 7.14167 77.2999 6.95833 77.4832 6.775C77.6665 6.59167 77.9249 6.5 78.2582 6.5H83.6832C84.0165 6.5 84.2749 6.59167 84.4582 6.775C84.6415 6.95833 84.7582 7.14167 84.8082 7.325L90.3832 23.275C90.3999 23.325 90.4082 23.3833 90.4082 23.45C90.4082 23.6 90.3499 23.7333 90.2332 23.85C90.1332 23.95 90.0082 24 89.8582 24H85.2332C84.9165 24 84.6832 23.9333 84.5332 23.8C84.3999 23.65 84.3082 23.5083 84.2582 23.375L83.6582 21.725H78.2832L77.6832 23.375C77.6332 23.5083 77.5415 23.65 77.4082 23.8C77.2749 23.9333 77.0415 24 76.7082 24H72.0832ZM79.5582 16.85H82.3832L80.9582 12.2L79.5582 16.85ZM92.4553 24C92.2719 24 92.1136 23.9333 91.9803 23.8C91.8469 23.6667 91.7803 23.5083 91.7803 23.325V7.175C91.7803 6.99167 91.8469 6.83333 91.9803 6.7C92.1136 6.56667 92.2719 6.5 92.4553 6.5H100.755C102.355 6.5 103.664 6.7 104.68 7.1C105.697 7.48333 106.447 8.06667 106.93 8.85C107.43 9.61667 107.68 10.5833 107.68 11.75C107.68 12.2833 107.564 12.7667 107.33 13.2C107.114 13.6167 106.847 13.9667 106.53 14.25C106.23 14.5333 105.947 14.7417 105.68 14.875C106.314 15.1417 106.864 15.6083 107.33 16.275C107.814 16.925 108.055 17.6667 108.055 18.5C108.055 19.75 107.78 20.7833 107.23 21.6C106.68 22.4 105.88 23 104.83 23.4C103.797 23.8 102.522 24 101.005 24H92.4553ZM98.0303 19.7H100.355C100.772 19.7 101.064 19.5667 101.23 19.3C101.414 19.0167 101.505 18.7417 101.505 18.475C101.505 18.175 101.405 17.9 101.205 17.65C101.022 17.3833 100.739 17.25 100.355 17.25H98.0303V19.7ZM98.0303 13.075H100.13C100.497 13.075 100.755 12.9583 100.905 12.725C101.072 12.475 101.155 12.2167 101.155 11.95C101.155 11.6833 101.072 11.425 100.905 11.175C100.755 10.925 100.497 10.8 100.13 10.8H98.0303V13.075ZM118.04 24.25C116.406 24.25 114.973 24 113.74 23.5C112.523 23 111.556 22.25 110.84 21.25C110.14 20.2333 109.756 18.9833 109.69 17.5C109.673 16.8167 109.665 16.0917 109.665 15.325C109.665 14.5583 109.673 13.8167 109.69 13.1C109.756 11.6333 110.14 10.3917 110.84 9.375C111.54 8.35833 112.506 7.58333 113.74 7.05C114.973 6.51667 116.406 6.25 118.04 6.25C119.673 6.25 121.106 6.51667 122.34 7.05C123.573 7.58333 124.54 8.35833 125.24 9.375C125.956 10.3917 126.34 11.6333 126.39 13.1C126.423 13.8167 126.44 14.5583 126.44 15.325C126.44 16.0917 126.423 16.8167 126.39 17.5C126.323 18.9833 125.931 20.2333 125.215 21.25C124.515 22.25 123.548 23 122.315 23.5C121.098 24 119.673 24.25 118.04 24.25ZM118.04 19.375C118.59 19.375 119.031 19.2167 119.365 18.9C119.698 18.5667 119.873 18.05 119.89 17.35C119.923 16.6333 119.94 15.925 119.94 15.225C119.94 14.525 119.923 13.8333 119.89 13.15C119.873 12.6833 119.781 12.3 119.615 12C119.465 11.7 119.256 11.4833 118.99 11.35C118.723 11.2 118.406 11.125 118.04 11.125C117.69 11.125 117.373 11.2 117.09 11.35C116.823 11.4833 116.606 11.7 116.44 12C116.29 12.3 116.206 12.6833 116.19 13.15C116.173 13.8333 116.165 14.525 116.165 15.225C116.165 15.925 116.173 16.6333 116.19 17.35C116.223 18.05 116.398 18.5667 116.715 18.9C117.048 19.2167 117.49 19.375 118.04 19.375ZM136.669 24.25C135.069 24.25 133.653 24.0083 132.419 23.525C131.203 23.0417 130.253 22.2917 129.569 21.275C128.886 20.2583 128.544 18.9667 128.544 17.4V7.175C128.544 6.99167 128.611 6.83333 128.744 6.7C128.878 6.56667 129.036 6.5 129.219 6.5H134.119C134.303 6.5 134.461 6.56667 134.594 6.7C134.728 6.83333 134.794 6.99167 134.794 7.175V17.3C134.794 17.9167 134.944 18.3917 135.244 18.725C135.561 19.0583 136.028 19.225 136.644 19.225C137.261 19.225 137.719 19.0583 138.019 18.725C138.336 18.3917 138.494 17.9167 138.494 17.3V7.175C138.494 6.99167 138.561 6.83333 138.694 6.7C138.828 6.56667 138.986 6.5 139.169 6.5H144.069C144.253 6.5 144.411 6.56667 144.544 6.7C144.678 6.83333 144.744 6.99167 144.744 7.175V17.4C144.744 18.9667 144.403 20.2583 143.719 21.275C143.036 22.2917 142.086 23.0417 140.869 23.525C139.653 24.0083 138.253 24.25 136.669 24.25ZM151.897 24C151.713 24 151.555 23.9333 151.422 23.8C151.288 23.6667 151.222 23.5083 151.222 23.325V11.875H147.072C146.888 11.875 146.73 11.8083 146.597 11.675C146.463 11.5417 146.397 11.3833 146.397 11.2V7.175C146.397 6.99167 146.463 6.83333 146.597 6.7C146.73 6.56667 146.888 6.5 147.072 6.5H161.722C161.905 6.5 162.063 6.56667 162.197 6.7C162.33 6.83333 162.397 6.99167 162.397 7.175V11.2C162.397 11.3833 162.33 11.5417 162.197 11.675C162.063 11.8083 161.905 11.875 161.722 11.875H157.572V23.325C157.572 23.5083 157.505 23.6667 157.372 23.8C157.238 23.9333 157.08 24 156.897 24H151.897Z" fill="#1F1F1F"/>
<path d="M7.52643 52C7.31167 52 7.12619 51.9219 6.97 51.7657C6.81381 51.6095 6.73571 51.424 6.73571 51.2093V45.44L0.146429 32.4079C0.126905 32.3688 0.107381 32.3298 0.0878571 32.2907C0.0878571 32.2321 0.0878571 32.1833 0.0878571 32.1443C0.0878571 31.9686 0.146429 31.8221 0.263571 31.705C0.400238 31.5683 0.556429 31.5 0.732143 31.5H6.23786C6.62833 31.5 6.92119 31.5976 7.11643 31.7929C7.31167 31.9881 7.42881 32.1345 7.46786 32.2321L10.3964 38.1186L13.325 32.2321C13.364 32.1345 13.4812 31.9881 13.6764 31.7929C13.8717 31.5976 14.1645 31.5 14.555 31.5H20.0607C20.2364 31.5 20.3829 31.5683 20.5 31.705C20.6367 31.8221 20.705 31.9686 20.705 32.1443C20.705 32.1833 20.6952 32.2321 20.6757 32.2907C20.6757 32.3298 20.666 32.3688 20.6464 32.4079L14.0571 45.44V51.2093C14.0571 51.424 13.979 51.6095 13.8229 51.7657C13.6667 51.9219 13.4812 52 13.2664 52H7.52643ZM30.6557 52.2929C28.7424 52.2929 27.0634 52 25.6186 51.4143C24.1934 50.8286 23.061 49.95 22.2214 48.7786C21.4014 47.5876 20.9524 46.1233 20.8743 44.3857C20.8548 43.5852 20.845 42.736 20.845 41.8379C20.845 40.9398 20.8548 40.071 20.8743 39.2314C20.9524 37.5133 21.4014 36.0588 22.2214 34.8679C23.0414 33.6769 24.1738 32.769 25.6186 32.1443C27.0634 31.5195 28.7424 31.2071 30.6557 31.2071C32.5691 31.2071 34.2481 31.5195 35.6929 32.1443C37.1376 32.769 38.27 33.6769 39.09 34.8679C39.9295 36.0588 40.3786 37.5133 40.4372 39.2314C40.4762 40.071 40.4957 40.9398 40.4957 41.8379C40.4957 42.736 40.4762 43.5852 40.4372 44.3857C40.3591 46.1233 39.9003 47.5876 39.0607 48.7786C38.2407 49.95 37.1084 50.8286 35.6636 51.4143C34.2384 52 32.5691 52.2929 30.6557 52.2929ZM30.6557 46.5821C31.3 46.5821 31.8174 46.3967 32.2079 46.0257C32.5984 45.6352 32.8034 45.03 32.8229 44.21C32.8619 43.3705 32.8814 42.5407 32.8814 41.7207C32.8814 40.9007 32.8619 40.0905 32.8229 39.29C32.8034 38.7433 32.696 38.2943 32.5007 37.9429C32.325 37.5914 32.081 37.3376 31.7686 37.1814C31.4562 37.0057 31.0853 36.9179 30.6557 36.9179C30.2457 36.9179 29.8748 37.0057 29.5429 37.1814C29.2305 37.3376 28.9767 37.5914 28.7814 37.9429C28.6057 38.2943 28.5081 38.7433 28.4886 39.29C28.4691 40.0905 28.4593 40.9007 28.4593 41.7207C28.4593 42.5407 28.4691 43.3705 28.4886 44.21C28.5276 45.03 28.7326 45.6352 29.1036 46.0257C29.4941 46.3967 30.0114 46.5821 30.6557 46.5821ZM52.4791 52.2929C50.6048 52.2929 48.9453 52.0098 47.5005 51.4436C46.0753 50.8774 44.9624 49.9988 44.1619 48.8079C43.3615 47.6169 42.9612 46.1038 42.9612 44.2686V32.2907C42.9612 32.076 43.0393 31.8905 43.1955 31.7343C43.3517 31.5781 43.5372 31.5 43.7519 31.5H49.4919C49.7067 31.5 49.8922 31.5781 50.0484 31.7343C50.2046 31.8905 50.2827 32.076 50.2827 32.2907V44.1514C50.2827 44.8738 50.4584 45.4302 50.8098 45.8207C51.1808 46.2112 51.7274 46.4064 52.4498 46.4064C53.1722 46.4064 53.7091 46.2112 54.0605 45.8207C54.4315 45.4302 54.6169 44.8738 54.6169 44.1514V32.2907C54.6169 32.076 54.695 31.8905 54.8512 31.7343C55.0074 31.5781 55.1929 31.5 55.4077 31.5H61.1477C61.3624 31.5 61.5479 31.5781 61.7041 31.7343C61.8603 31.8905 61.9384 32.076 61.9384 32.2907V44.2686C61.9384 46.1038 61.5381 47.6169 60.7377 48.8079C59.9372 49.9988 58.8243 50.8774 57.3991 51.4436C55.9738 52.0098 54.3338 52.2929 52.4791 52.2929ZM65.7775 52C65.5628 52 65.3773 51.9219 65.2211 51.7657C65.0649 51.6095 64.9868 51.424 64.9868 51.2093V32.2907C64.9868 32.076 65.0649 31.8905 65.2211 31.7343C65.3773 31.5781 65.5628 31.5 65.7775 31.5H74.4461C77.2575 31.5 79.454 32.1345 81.0354 33.4036C82.6168 34.6726 83.4075 36.4102 83.4075 38.6164C83.4075 39.9245 83.1049 41.0667 82.4997 42.0429C81.914 42.9995 81.1623 43.7707 80.2447 44.3564L83.8468 51.0336C83.9054 51.1507 83.9347 51.2581 83.9347 51.3557C83.9347 51.5314 83.8664 51.6876 83.7297 51.8243C83.6125 51.9414 83.4661 52 83.2904 52H77.2868C76.8964 52 76.6035 51.9024 76.4083 51.7071C76.213 51.5119 76.0861 51.346 76.0275 51.2093L73.509 45.6157H72.3083V51.2093C72.3083 51.424 72.2302 51.6095 72.074 51.7657C71.9178 51.9219 71.7323 52 71.5175 52H65.7775ZM72.3083 40.0514H74.4461C74.8952 40.0514 75.2271 39.905 75.4418 39.6121C75.6761 39.2998 75.7933 38.9483 75.7933 38.5579C75.7933 38.1674 75.6859 37.8062 75.4711 37.4743C75.2759 37.1229 74.9342 36.9471 74.4461 36.9471H72.3083V40.0514ZM94.6732 52.2929C92.506 52.2929 90.7196 52 89.3139 51.4143C87.9082 50.8286 86.8539 50.0574 86.151 49.1007C85.4482 48.144 85.0772 47.1288 85.0382 46.055C85.0382 45.8793 85.0967 45.7329 85.2139 45.6157C85.3505 45.479 85.5067 45.4107 85.6824 45.4107H91.2467C91.5591 45.4107 91.7934 45.4595 91.9496 45.5571C92.1253 45.6352 92.3108 45.7524 92.506 45.9086C92.7013 46.0452 92.8965 46.1721 93.0917 46.2893C93.3065 46.3869 93.5408 46.465 93.7946 46.5236C94.0679 46.5626 94.3608 46.5821 94.6732 46.5821C95.337 46.5821 95.8641 46.5138 96.2546 46.3771C96.6646 46.221 96.8696 46.016 96.8696 45.7621C96.8696 45.5279 96.7524 45.3326 96.5182 45.1764C96.3034 45.0202 95.9227 44.8836 95.376 44.7664C94.8294 44.6298 94.0679 44.5029 93.0917 44.3857C91.5494 44.171 90.212 43.8098 89.0796 43.3021C87.9472 42.7945 87.0686 42.1014 86.4439 41.2229C85.8386 40.3248 85.536 39.2314 85.536 37.9429C85.536 36.6152 85.907 35.4438 86.6489 34.4286C87.4103 33.4133 88.4548 32.6226 89.7824 32.0564C91.1296 31.4902 92.6915 31.2071 94.4682 31.2071C95.9324 31.2071 97.2308 31.4024 98.3632 31.7929C99.4955 32.1638 100.452 32.6617 101.233 33.2864C102.014 33.8917 102.61 34.5457 103.02 35.2486C103.43 35.9514 103.644 36.625 103.664 37.2693C103.664 37.445 103.596 37.6012 103.459 37.7379C103.342 37.855 103.205 37.9136 103.049 37.9136H97.1917C96.9184 37.9136 96.6939 37.8745 96.5182 37.7964C96.362 37.7183 96.196 37.6012 96.0203 37.445C95.9227 37.3474 95.7372 37.24 95.4639 37.1229C95.2101 36.9862 94.8782 36.9179 94.4682 36.9179C93.9801 36.9179 93.6189 36.996 93.3846 37.1521C93.1698 37.2888 93.0624 37.484 93.0624 37.7379C93.0624 37.9136 93.1503 38.0795 93.326 38.2357C93.5017 38.3919 93.8239 38.5286 94.2924 38.6457C94.761 38.7629 95.4346 38.88 96.3132 38.9971C98.2655 39.2314 99.8274 39.6121 100.999 40.1393C102.19 40.6469 103.049 41.3302 103.576 42.1893C104.123 43.0483 104.396 44.1124 104.396 45.3814C104.396 46.8067 103.966 48.0367 103.107 49.0714C102.268 50.1062 101.116 50.9067 99.6517 51.4729C98.1874 52.0195 96.5279 52.2929 94.6732 52.2929ZM107.332 52C107.118 52 106.932 51.9219 106.776 51.7657C106.62 51.6095 106.542 51.424 106.542 51.2093V32.2907C106.542 32.076 106.62 31.8905 106.776 31.7343C106.932 31.5781 107.118 31.5 107.332 31.5H122.356C122.571 31.5 122.756 31.5781 122.912 31.7343C123.069 31.8905 123.147 32.076 123.147 32.2907V36.42C123.147 36.6348 123.069 36.8202 122.912 36.9764C122.756 37.1326 122.571 37.2107 122.356 37.2107H113.57V39.0557H121.712C121.926 39.0557 122.112 39.1338 122.268 39.29C122.424 39.4462 122.502 39.6317 122.502 39.8464V43.6536C122.502 43.8683 122.424 44.0538 122.268 44.21C122.112 44.3662 121.926 44.4443 121.712 44.4443H113.57V46.2893H122.59C122.805 46.2893 122.99 46.3674 123.147 46.5236C123.303 46.6798 123.381 46.8652 123.381 47.08V51.2093C123.381 51.424 123.303 51.6095 123.147 51.7657C122.99 51.9219 122.805 52 122.59 52H107.332ZM126.866 52C126.651 52 126.465 51.9219 126.309 51.7657C126.153 51.6095 126.075 51.424 126.075 51.2093V32.2907C126.075 32.076 126.153 31.8905 126.309 31.7343C126.465 31.5781 126.651 31.5 126.866 31.5H132.723C132.938 31.5 133.123 31.5781 133.279 31.7343C133.435 31.8905 133.514 32.076 133.514 32.2907V45.9964H141.626C141.84 45.9964 142.026 46.0745 142.182 46.2307C142.338 46.3869 142.416 46.5724 142.416 46.7871V51.2093C142.416 51.424 142.338 51.6095 142.182 51.7657C142.026 51.9219 141.84 52 141.626 52H126.866ZM145.198 52C144.983 52 144.798 51.9219 144.641 51.7657C144.485 51.6095 144.407 51.424 144.407 51.2093V32.2907C144.407 32.076 144.485 31.8905 144.641 31.7343C144.798 31.5781 144.983 31.5 145.198 31.5H159.958C160.173 31.5 160.358 31.5781 160.514 31.7343C160.67 31.8905 160.749 32.076 160.749 32.2907V36.7421C160.749 36.9569 160.67 37.1424 160.514 37.2986C160.358 37.4548 160.173 37.5329 159.958 37.5329H151.582V39.7H159.372C159.587 39.7 159.772 39.7781 159.929 39.9343C160.085 40.0905 160.163 40.276 160.163 40.4907V44.9129C160.163 45.1276 160.085 45.3131 159.929 45.4693C159.772 45.6255 159.587 45.7036 159.372 45.7036H151.582V51.2093C151.582 51.424 151.504 51.6095 151.348 51.7657C151.192 51.9219 151.006 52 150.791 52H145.198Z" fill="#1F1F1F"/>
</svg>
