<svg width="320" height="123" viewBox="0 0 320 123" fill="none" xmlns="http://www.w3.org/2000/svg">
<path d="M48.4875 0.666646C48.8675 0.666646 49.1842 0.814424 49.4375 1.10998C49.7331 1.36331 49.8808 1.67998 49.8808 2.05998L49.8175 2.50332L35.2508 42.91C35.0397 43.5011 34.702 44.0078 34.2375 44.43C33.7731 44.81 33.1608 45 32.4008 45H17.6442C16.8842 45 16.2719 44.81 15.8075 44.43C15.3431 44.0078 15.0264 43.5644 14.8575 43.1L0.164159 2.50332L0.100825 2.05998C0.100825 1.67998 0.227492 1.36331 0.480826 1.10998C0.776381 0.814424 1.11416 0.666646 1.49416 0.666646H14.8575C15.6175 0.666646 16.2297 0.898869 16.6942 1.36332C17.2008 1.78554 17.5386 2.24998 17.7075 2.75665L24.9908 27.0133L32.2742 2.75665C32.4431 2.20776 32.7597 1.7222 33.2242 1.29998C33.6886 0.877757 34.322 0.666646 35.1242 0.666646H48.4875ZM69.6794 42.8467C69.1306 44.2822 68.1806 45 66.8294 45H54.8594C54.4794 45 54.1417 44.8733 53.8461 44.62C53.5928 44.3244 53.4661 43.9867 53.4661 43.6067L53.5294 43.2267L67.3361 2.75665C67.505 2.20776 67.8217 1.7222 68.2861 1.29998C68.7506 0.877757 69.3839 0.666646 70.1861 0.666646H87.7928C88.595 0.666646 89.2283 0.877757 89.6928 1.29998C90.1572 1.7222 90.4739 2.20776 90.6428 2.75665L104.449 43.2267L104.513 43.6067C104.513 43.9867 104.365 44.3244 104.069 44.62C103.816 44.8733 103.499 45 103.119 45H91.1495C89.7983 45 88.8483 44.2822 88.2995 42.8467L86.7161 38.4133H71.2628L69.6794 42.8467ZM78.9895 12.89L74.4928 26.0633H83.4861L78.9895 12.89ZM152.431 0.666646C152.896 0.666646 153.297 0.835535 153.635 1.17331C153.973 1.51109 154.141 1.9122 154.141 2.37665V43.29C154.141 43.7544 153.973 44.1556 153.635 44.4933C153.297 44.8311 152.896 45 152.431 45H142.235C141.221 45 140.377 44.5567 139.701 43.67L125.895 26.0633V43.29C125.895 43.7544 125.726 44.1556 125.388 44.4933C125.05 44.8311 124.649 45 124.185 45H112.405C111.94 45 111.539 44.8311 111.201 44.4933C110.864 44.1556 110.695 43.7544 110.695 43.29V2.37665C110.695 1.9122 110.864 1.51109 111.201 1.17331C111.539 0.835535 111.94 0.666646 112.405 0.666646H122.665C123.678 0.666646 124.501 1.08887 125.135 1.93332L138.941 20.9967V2.37665C138.941 1.9122 139.11 1.51109 139.448 1.17331C139.786 0.835535 140.187 0.666646 140.651 0.666646H152.431ZM206.937 32.65C207.401 32.65 207.802 32.8189 208.14 33.1567C208.478 33.4944 208.647 33.8956 208.647 34.36V43.29C208.647 43.7544 208.478 44.1556 208.14 44.4933C207.802 44.8311 207.401 45 206.937 45H166.91C166.446 45 166.044 44.8311 165.707 44.4933C165.369 44.1556 165.2 43.7544 165.2 43.29V2.37665C165.2 1.9122 165.369 1.51109 165.707 1.17331C166.044 0.835535 166.446 0.666646 166.91 0.666646H206.303C206.768 0.666646 207.169 0.835535 207.507 1.17331C207.844 1.51109 208.013 1.9122 208.013 2.37665V11.3067C208.013 11.7711 207.844 12.1722 207.507 12.51C207.169 12.8478 206.768 13.0167 206.303 13.0167H181.667V17.0067H202.82C203.284 17.0067 203.686 17.1755 204.023 17.5133C204.361 17.8511 204.53 18.2522 204.53 18.7167V26.95C204.53 27.4144 204.361 27.8155 204.023 28.1533C203.686 28.4911 203.284 28.66 202.82 28.66H181.667V32.65H206.937ZM243.709 16.7533C248.353 17.26 252.069 18.0833 254.855 19.2233C257.684 20.3633 259.732 21.8622 260.999 23.72C262.265 25.5778 262.899 27.9 262.899 30.6867C262.899 33.7267 261.906 36.3867 259.922 38.6667C257.98 40.9044 255.278 42.6356 251.815 43.86C248.353 45.0422 244.405 45.6333 239.972 45.6333C235.032 45.6333 230.852 45.0211 227.432 43.7967C224.012 42.5722 221.458 40.9467 219.769 38.92C218.08 36.8511 217.235 34.5922 217.235 32.1433C217.235 31.7211 217.362 31.3833 217.615 31.13C217.911 30.8767 218.27 30.75 218.692 30.75H231.675C232.562 30.75 233.28 31.0244 233.829 31.5733C234.546 32.2489 235.349 32.7133 236.235 32.9667C237.122 33.1778 238.368 33.2833 239.972 33.2833C243.983 33.2833 245.989 32.6711 245.989 31.4467C245.989 30.94 245.714 30.5178 245.165 30.18C244.659 29.8 243.73 29.4833 242.379 29.23C241.07 28.9344 239.128 28.6389 236.552 28.3433C230.768 27.6678 226.334 26.2322 223.252 24.0367C220.17 21.7989 218.629 18.6533 218.629 14.6C218.629 11.7289 219.494 9.19554 221.225 6.99998C222.956 4.80443 225.405 3.09443 228.572 1.86998C231.781 0.645535 235.496 0.0333129 239.719 0.0333129C244.11 0.0333129 247.952 0.72998 251.245 2.12331C254.539 3.47443 257.051 5.16332 258.782 7.18998C260.513 9.21665 261.379 11.2011 261.379 13.1433C261.379 13.5655 261.231 13.9033 260.935 14.1567C260.682 14.41 260.323 14.5367 259.859 14.5367H246.242C245.524 14.5367 244.87 14.2833 244.279 13.7767C243.814 13.3544 243.265 13.0167 242.632 12.7633C241.999 12.51 241.028 12.3833 239.719 12.3833C236.89 12.3833 235.475 12.9744 235.475 14.1567C235.475 14.79 236.024 15.2967 237.122 15.6767C238.22 16.0144 240.415 16.3733 243.709 16.7533ZM284.914 42.8467C284.365 44.2822 283.415 45 282.064 45H270.094C269.714 45 269.376 44.8733 269.081 44.62C268.827 44.3244 268.701 43.9867 268.701 43.6067L268.764 43.2267L282.571 2.75665C282.739 2.20776 283.056 1.7222 283.521 1.29998C283.985 0.877757 284.618 0.666646 285.421 0.666646H303.027C303.829 0.666646 304.463 0.877757 304.927 1.29998C305.392 1.7222 305.708 2.20776 305.877 2.75665L319.684 43.2267L319.747 43.6067C319.747 43.9867 319.599 44.3244 319.304 44.62C319.051 44.8733 318.734 45 318.354 45H306.384C305.033 45 304.083 44.2822 303.534 42.8467L301.951 38.4133H286.497L284.914 42.8467ZM294.224 12.89L289.727 26.0633H298.721L294.224 12.89ZM31.4508 78.6666C35.4197 78.6666 38.882 79.3422 41.8375 80.6933C44.7931 82.0444 47.052 83.8811 48.6142 86.2033C50.1764 88.5255 50.9575 91.1222 50.9575 93.9933C50.9575 98.7222 49.4797 102.438 46.5242 105.14C43.5686 107.8 38.5442 109.13 31.4508 109.13H23.0908V121.29C23.0908 121.754 22.9219 122.156 22.5842 122.493C22.2464 122.831 21.8453 123 21.3808 123H7.76416C7.29972 123 6.89861 122.831 6.56083 122.493C6.22305 122.156 6.05416 121.754 6.05416 121.29V80.3766C6.05416 79.9122 6.22305 79.5111 6.56083 79.1733C6.89861 78.8355 7.29972 78.6666 7.76416 78.6666H31.4508ZM31.1975 97.4133C32.2108 97.4133 33.0131 97.1178 33.6042 96.5267C34.1953 95.8933 34.4908 95.07 34.4908 94.0567C34.4908 93.0011 34.1953 92.1355 33.6042 91.46C33.0131 90.7844 32.2108 90.4467 31.1975 90.4467H23.1542V97.4133H31.1975ZM69.6794 120.847C69.1306 122.282 68.1806 123 66.8294 123H54.8594C54.4794 123 54.1417 122.873 53.8461 122.62C53.5928 122.324 53.4661 121.987 53.4661 121.607L53.5294 121.227L67.3361 80.7566C67.505 80.2078 67.8217 79.7222 68.2861 79.3C68.7506 78.8778 69.3839 78.6666 70.1861 78.6666H87.7928C88.595 78.6666 89.2283 78.8778 89.6928 79.3C90.1572 79.7222 90.4739 80.2078 90.6428 80.7566L104.449 121.227L104.513 121.607C104.513 121.987 104.365 122.324 104.069 122.62C103.816 122.873 103.499 123 103.119 123H91.1495C89.7983 123 88.8483 122.282 88.2995 120.847L86.7161 116.413H71.2628L69.6794 120.847ZM78.9895 90.89L74.4928 104.063H83.4861L78.9895 90.89ZM152.431 78.6666C152.896 78.6666 153.297 78.8355 153.635 79.1733C153.973 79.5111 154.141 79.9122 154.141 80.3766V121.29C154.141 121.754 153.973 122.156 153.635 122.493C153.297 122.831 152.896 123 152.431 123H142.235C141.221 123 140.377 122.557 139.701 121.67L125.895 104.063V121.29C125.895 121.754 125.726 122.156 125.388 122.493C125.05 122.831 124.649 123 124.185 123H112.405C111.94 123 111.539 122.831 111.201 122.493C110.864 122.156 110.695 121.754 110.695 121.29V80.3766C110.695 79.9122 110.864 79.5111 111.201 79.1733C111.539 78.8355 111.94 78.6666 112.405 78.6666H122.665C123.678 78.6666 124.501 79.0889 125.135 79.9333L138.941 98.9967V80.3766C138.941 79.9122 139.11 79.5111 139.448 79.1733C139.786 78.8355 140.187 78.6666 140.651 78.6666H152.431ZM177.297 120.847C176.748 122.282 175.798 123 174.447 123H162.477C162.097 123 161.759 122.873 161.463 122.62C161.21 122.324 161.083 121.987 161.083 121.607L161.147 121.227L174.953 80.7566C175.122 80.2078 175.439 79.7222 175.903 79.3C176.368 78.8778 177.001 78.6666 177.803 78.6666H195.41C196.212 78.6666 196.846 78.8778 197.31 79.3C197.774 79.7222 198.091 80.2078 198.26 80.7566L212.067 121.227L212.13 121.607C212.13 121.987 211.982 122.324 211.687 122.62C211.433 122.873 211.117 123 210.737 123H198.767C197.416 123 196.466 122.282 195.917 120.847L194.333 116.413H178.88L177.297 120.847ZM186.607 90.89L182.11 104.063H191.103L186.607 90.89ZM248.839 110.017H260.302C260.766 110.017 261.168 110.186 261.505 110.523C261.843 110.861 262.012 111.262 262.012 111.727V121.29C262.012 121.754 261.843 122.156 261.505 122.493C261.168 122.831 260.766 123 260.302 123H220.149C219.684 123 219.283 122.831 218.945 122.493C218.608 122.156 218.439 121.754 218.439 121.29V111.727C218.439 111.262 218.608 110.861 218.945 110.523C219.283 110.186 219.684 110.017 220.149 110.017H231.739V91.65H220.149C219.684 91.65 219.283 91.4811 218.945 91.1433C218.608 90.8055 218.439 90.4044 218.439 89.94V80.3766C218.439 79.9122 218.608 79.5111 218.945 79.1733C219.283 78.8355 219.684 78.6666 220.149 78.6666H260.302C260.766 78.6666 261.168 78.8355 261.505 79.1733C261.843 79.5111 262.012 79.9122 262.012 80.3766V89.94C262.012 90.4044 261.843 90.8055 261.505 91.1433C261.168 91.4811 260.766 91.65 260.302 91.65H248.839V110.017ZM315.884 78.6666C316.348 78.6666 316.749 78.8355 317.087 79.1733C317.425 79.5111 317.594 79.9122 317.594 80.3766V90.5733C317.594 91.0378 317.425 91.4389 317.087 91.7767C316.749 92.1144 316.348 92.2833 315.884 92.2833H302.267V121.29C302.267 121.754 302.098 122.156 301.761 122.493C301.423 122.831 301.022 123 300.557 123H287.511C287.046 123 286.645 122.831 286.307 122.493C285.969 122.156 285.801 121.754 285.801 121.29V92.2833H272.184C271.719 92.2833 271.318 92.1144 270.981 91.7767C270.643 91.4389 270.474 91.0378 270.474 90.5733V80.3766C270.474 79.9122 270.643 79.5111 270.981 79.1733C271.318 78.8355 271.719 78.6666 272.184 78.6666H315.884Z" fill="#1F1F1F"/>
</svg>
